<svg width="134" height="100" viewBox="0 0 134 100" fill="none" xmlns="http://www.w3.org/2000/svg">
<circle cx="69" cy="50" r="50" fill="#68B738"/>
<g clip-path="url(#clip0_71242_458)">
<path d="M123.1 25.8C124.255 23.9631 125.789 22.3946 127.6 21.2C128.6 20.5 129.2 20.5 129.8 21.8C130.6 23.7 131.3 25.7 130.7 27.8C130.591 28.1562 130.57 28.5336 130.64 28.8995C130.71 29.2655 130.868 29.6089 131.1 29.9C131.7 30.7 132.2 31.5 132.7 32.2C133.381 33.0638 133.822 34.0913 133.98 35.1795C134.138 36.2678 134.007 37.3784 133.6 38.4C133.233 39.3918 133.163 40.4692 133.4 41.5C133.6 42.49 133.6 43.51 133.4 44.5C133.319 45.2414 133.019 45.9419 132.538 46.5119C132.057 47.0819 131.417 47.4956 130.7 47.7C129.421 47.9434 128.279 48.6569 127.5 49.7C127.406 49.8536 127.273 49.9803 127.116 50.0679C126.958 50.1555 126.78 50.201 126.6 50.2C125.4 50.4 122.4 47.7 122.4 46.5V45.9C122.5 42.3 122.3 42 119 40.5C118.309 40.2564 117.691 39.8439 117.2 39.3C116.6 38.5 115.8 38.6 114.9 38.9C114 39.2 113.5 39.8 113.6 40.8C113.902 43.2209 114.002 45.6626 113.9 48.1C113.907 48.3782 113.975 48.6514 114.1 48.9C117.2 53.4 118.4 58.7 119.9 63.8C121.1 67.7 123.3 69.8 127.3 70.1C127.94 70.1511 128.575 70.2514 129.2 70.4C130.022 70.532 130.785 70.9076 131.391 71.478C131.997 72.0485 132.419 72.7877 132.6 73.6C133.3 75.7 132.9 76.2 130.8 76.2H124.3C123.459 76.2426 122.634 75.9556 122 75.4C120.988 74.5459 119.838 73.8696 118.6 73.4C117.231 72.8947 116.046 71.9887 115.2 70.8C114.029 69.1635 112.688 67.6551 111.2 66.3C108.4 63.4 105.4 60.6 102.8 57.6C100.821 55.5558 99.6791 52.8443 99.6 50C99.6 49.1 99.4 48.7 98.4 49.1C98.1006 49.29 97.7546 49.3938 97.4 49.4C94.6 49.4 93.2 51.1 92.2 53.6C91.3 55.7 90.1 57.7 89 59.8C88.3763 61.1145 88.0356 62.5454 88 64C88 66.4 88.6 67.2 90.8 68C92.2 68.5 93.5 69 94.2 70.4C95 72 94.8 72.4 93.1 72.5H86.3C85.908 72.5388 85.5137 72.4535 85.1728 72.2562C84.8319 72.0588 84.5616 71.7593 84.4 71.4L82.6 68.4C82.0695 67.6172 81.7298 66.721 81.6082 65.7832C81.4866 64.8454 81.5866 63.8922 81.9 63C82.3328 61.2635 82.367 59.4516 82 57.7C81.748 56.4801 81.7697 55.2195 82.0637 54.009C82.3576 52.7986 82.9165 51.6684 83.7 50.7C84.3 50 84.3 49.7 83.3 49.5C79.2109 48.6314 75.2468 47.254 71.5 45.4C71.4735 45.4 71.4481 45.3895 71.4293 45.3707C71.4106 45.352 71.4 45.3265 71.4 45.3C68.2 44.1 67.6 44.3 66.7 47.6C65.9 50.4 65.1 53.2 64.5 56.1C63.8 59.3 64.6 62.3 65.6 65.3C66 66.5 67.2 66.4 68.1 66.7C70.1 67.3 71.8 68.1 72.6 70.2C73.3 71.8 73.2 72 71.5 72C69.8 72 68.1 71.9 66.3 72C64.7811 72.0275 63.2987 71.5334 62.1 70.6C57.3 67.4 55.9 62.5 55.5 57.2C55.3 53.9 53.5 51.3 51.4 48.8C51 48.3 50.6 48.1 50 48.5C47.8535 49.6836 45.6125 50.687 43.3 51.5C38.4743 53.204 34.2397 56.2585 31.1 60.3C29.9277 61.775 29.1684 63.5351 28.9 65.4C28.6 67.2 29.1 68 30.9 68.5C32.7 69 33.6 70 33.8 71.9C33.9 72.7 33.6 73.1 32.8 73.1H24.7C24.4349 73.0812 24.1783 72.9987 23.952 72.8594C23.7256 72.7201 23.5363 72.5282 23.4 72.3C22.1439 70.7448 21.4717 68.799 21.5 66.8C21.4476 63.3449 21.7491 59.8936 22.4 56.5C22.5335 55.4837 22.913 54.5153 23.5054 53.6788C24.0979 52.8424 24.8856 52.1631 25.8 51.7C31.7 48.9 34.8 43.6 37.6 38.1C38.2 37 37.7 36.8 36.7 36.9C33.9014 37.2885 31.2497 38.3905 29 40.1C26.0542 42.2488 23.2793 44.6226 20.7 47.2C17.9497 49.9937 14.3027 51.7286 10.4 52.1C3.10004 52.5 -0.299959 48.4 4.14662e-05 41.8C0.067104 39.5496 0.915689 37.3928 2.40004 35.7C2.91606 35.031 3.61977 34.531 4.42131 34.2638C5.22284 33.9966 6.08582 33.9744 6.90004 34.2C8.40004 34.6 8.80004 35.4 8.20004 36.9C7.90004 37.5 7.50004 38 7.20004 38.6C6.76864 39.213 6.43156 39.8871 6.20004 40.6C5.10004 43.6 6.60004 45.7 9.70004 46C13 46.3 15.7 44.9 18.2 42.9C21.212 40.4882 23.9008 37.6986 26.2 34.6C27.9193 32.3374 30.0841 30.4513 32.5609 29.0581C35.0376 27.665 37.7736 26.7943 40.6 26.5C42.9 26.2 44.9 25.2 47.1 24.6C51.2145 23.3456 55.499 22.7384 59.8 22.8C61.7921 22.883 63.7766 22.5066 65.6 21.7C70.5 19.7 75.6 19.7 80.7 20.7C84.7 21.5 88.7 22.5 92.6 23.5C94.921 23.9325 97.3076 23.8643 99.6 23.3C103.989 22.1875 108.478 21.5175 113 21.3C115.963 21.1559 118.915 21.7395 121.6 23C123.6 23.9 123.6 23.9 123.1 25.8Z" fill="black"/>
</g>
<defs>
<clipPath id="clip0_71242_458">
<rect width="134" height="56" fill="white" transform="translate(0 20)"/>
</clipPath>
</defs>
</svg>
