<svg width="61" height="50" viewBox="0 0 61 50" fill="none" xmlns="http://www.w3.org/2000/svg">
<path d="M51.5819 18.854C50.0969 15.265 47.7053 12.1312 44.6455 9.76494C41.5858 7.39869 37.9646 5.88262 34.143 5.36781C30.3214 4.85301 26.4327 5.35745 22.8646 6.83086C19.2965 8.30427 16.1734 10.6952 13.8068 13.7654C11.4401 16.8355 9.91247 20.4777 9.37606 24.329C8.83965 28.1802 9.31322 32.106 10.7496 35.7151C12.1859 39.3242 14.5349 42.4906 17.5624 44.8987C20.5899 47.3068 24.1903 48.8726 28.0046 49.4399C27.5049 47.6238 26.9967 45.6166 26.5487 43.4878C27.8519 44.3405 29.2235 45.0816 30.6491 45.7035V45.7035C30.6491 45.7035 30.7525 47.5804 30.8903 49.6745C32.4308 49.7013 33.9697 49.5644 35.4818 49.2661C35.4427 49.0477 35.4427 48.8241 35.4818 48.6057C35.7316 46.9808 36.4207 44.0526 36.5585 42.167C37.552 41.2297 38.3948 40.1421 39.0567 38.9434V38.9434L39.005 39.3257C38.5312 43.0273 37.5406 46.9808 36.9376 48.0757C36.7424 48.4381 36.5021 48.7739 36.2226 49.0749C39.3408 48.3371 42.2626 46.924 44.7854 44.9336C47.3083 42.9433 49.3718 40.4233 50.8329 37.5484C52.294 34.6735 53.1178 31.5124 53.2472 28.2843C53.3765 25.0563 52.8083 21.8385 51.5819 18.854V18.854ZM50.3156 22.1472C49.9365 22.5208 49.1526 22.7728 49.0234 21.6432C48.8942 20.5136 48.8598 19.7229 48.8598 19.7229C48.8598 19.7229 47.1972 16.7425 46.577 16.7078C45.9567 16.673 41.5548 19.7229 40.3919 21.0524C39.384 22.1733 39.1859 22.0951 39.1859 24.0675C39.1859 25.5534 39.3754 31.1666 39.272 35.459L32.2514 37.3446C30.0447 37.9834 27.8006 38.4825 25.5323 38.8391L24.6708 33.7733H24.5502L22.3364 22.3297C22.3364 22.3297 19.0543 21.0784 17.8483 20.7396C17.282 20.4897 16.6567 20.4084 16.0462 20.5054C15.4356 20.6024 14.8653 20.8736 14.4026 21.287C13.9305 21.7039 13.5531 22.2185 13.2959 22.7958C13.0388 23.373 12.9079 23.9994 12.9123 24.6323C13.0944 25.0362 13.233 25.4585 13.3258 25.8922C13.3689 26.3093 12.2921 26.2659 11.603 26.2659C10.9138 26.2659 10.8104 25.0146 11.3531 23.5462C11.7765 22.417 12.3013 21.3292 12.9209 20.2964C13.387 19.3738 13.9881 18.5273 14.7041 17.7852C14.7041 17.7852 14.8247 17.4898 15.7809 17.5767C16.7371 17.6636 22.0521 17.9503 22.0521 17.9503L22.0952 15.9779C27.8722 15.1733 33.6987 14.7842 39.5305 14.8135C39.5305 15.3436 39.5305 15.8736 39.5305 16.4037C41.7394 15.3869 44.1179 14.7974 46.5425 14.6658C46.6722 14.6625 46.8008 14.6917 46.9165 14.7509C47.0323 14.81 47.1317 14.8972 47.2058 15.0047C47.4987 15.3783 49.2819 17.6115 49.4886 17.933C50.0677 18.7677 50.5942 19.6383 51.065 20.5397C50.9036 21.1104 50.6504 21.6505 50.3156 22.1385V22.1472Z" fill="#FDC305"/>
<path d="M48.6363 16.8294C49.0411 17.3508 49.3943 17.8113 49.4977 17.9503C50.0768 18.7851 50.6033 19.6557 51.0741 20.5571C50.9102 21.1091 50.6601 21.6312 50.3333 22.1038C49.9543 22.4774 49.1704 22.7294 49.0411 21.5998C48.9119 20.4702 48.8602 19.7229 48.8602 19.7229C48.8602 19.7229 47.1977 16.7425 46.5775 16.7078C45.9572 16.673 41.5553 19.7229 40.3924 21.0524C39.3845 22.1733 39.1864 22.0951 39.1864 24.0675C39.1864 25.3709 39.3328 29.8458 39.2984 33.8254C40.8576 33.9992 43.149 34.4337 43.8381 35.459C43.8381 35.459 43.5883 29.2202 50.5659 32.4873C50.5659 32.4873 50.8071 23.9806 60.4378 26.1616C57.1639 22.2844 53.1505 19.1107 48.6363 16.8294V16.8294Z" fill="#F06351"/>
<path d="M39.5654 14.9332C39.6004 10.1183 39.1967 5.3104 38.3594 0.570041C38.3594 0.570041 38.2302 -0.559551 37.61 0.361501C37.0982 1.46261 36.7499 2.63372 36.5762 3.83717C32.8938 3.59884 29.1975 3.69772 25.5327 4.1326C24.8264 1.74308 23.6204 0.656933 23.0432 0.943675C22.466 1.23042 22.3971 3.79372 22.3971 3.79372L22.1129 16.0976C27.8956 15.2922 33.7279 14.9031 39.5654 14.9332V14.9332Z" fill="#F06351"/>
<path d="M39.0651 38.9434C39.1771 38.0136 39.2374 36.7798 39.2718 35.4156L32.2515 37.3011C30.0459 37.9546 27.8019 38.4682 25.5327 38.8391L26.4889 43.1837C26.4889 43.2793 26.4889 43.3748 26.5492 43.4704C27.8522 44.3231 29.2237 45.0642 30.6494 45.6862C32.7328 44.6815 34.7171 43.4799 36.5757 42.0975V42.1497C37.5646 41.217 38.4044 40.1354 39.0651 38.9434V38.9434Z" fill="#E55645"/>
<path d="M27.5657 12.0938C27.5226 12.0069 28.4271 12.6847 28.7803 12.8932C29.1334 13.1018 29.3057 13.2582 29.3057 13.4059C29.3057 13.5536 29.0817 13.7013 28.7716 13.7013C28.4615 13.7013 27.9792 13.5971 27.9103 13.4754C27.8413 13.3538 28.4271 13.4754 28.72 13.4754H28.9698C28.4394 13.084 27.9667 12.6189 27.5657 12.0938Z" fill="black"/>
<path d="M34.0264 12.1894C34.0264 12.1894 33.165 13.3016 33.0875 13.3538C33.0099 13.4059 32.941 13.6492 33.2511 13.6057C33.6071 13.5521 33.9585 13.4708 34.302 13.3624C34.3968 13.3103 34.3623 13.1887 34.1986 13.206C34.035 13.2234 33.6129 13.2495 33.3373 13.3016L34.0694 12.1981C34.0694 12.1981 34.0953 12.0938 34.0264 12.1894Z" fill="black"/>
<path d="M31.3215 17.4985C31.7208 17.321 32.0508 17.0156 32.2604 16.6296C32.5016 16.0561 32.2604 15.8389 31.8814 15.7607C31.36 15.6647 30.8218 15.7702 30.374 16.0561C30.038 16.3776 30.0811 16.6904 30.374 16.925C30.6649 17.1552 30.9832 17.3478 31.3215 17.4985V17.4985Z" fill="black"/>
<path d="M31.0113 18.5933C30.9124 18.7904 30.778 18.9672 30.615 19.1147C30.3697 19.3138 30.0681 19.4294 29.7536 19.4449C29.2794 19.4918 28.8052 19.3552 28.4271 19.0625C28.2535 18.9601 28.0989 18.8278 27.9706 18.6715C27.8844 18.5769 27.7785 18.5027 27.6605 18.4543C27.6605 18.4543 28.3065 22.0255 29.8742 22.599C31.4419 23.1725 31.7348 21.9387 31.7779 21.6085C31.8304 20.6196 31.5841 19.6379 31.0715 18.7932C31.0715 18.5325 31.0543 18.7063 31.0113 18.5933Z" fill="#F06351"/>
<path d="M29.5469 19.5839C29.1438 19.5254 28.7566 19.3852 28.4087 19.1716C28.0608 18.9581 27.7594 18.6756 27.5226 18.3413C27.5015 18.3174 27.4897 18.2865 27.4897 18.2544C27.4897 18.2224 27.5015 18.1915 27.5226 18.1676C27.5339 18.156 27.5473 18.1468 27.5621 18.1405C27.5769 18.1343 27.5927 18.131 27.6088 18.131C27.6248 18.131 27.6407 18.1343 27.6555 18.1405C27.6703 18.1468 27.6837 18.156 27.6949 18.1676C27.9081 18.4692 28.1785 18.7252 28.4905 18.9206C28.8025 19.116 29.1499 19.2469 29.5124 19.3058C29.7993 19.2841 30.0769 19.194 30.3225 19.0429C30.5681 18.8919 30.7746 18.6842 30.9251 18.4369L31.0457 18.2718L31.1319 18.463C31.1319 18.463 31.4592 19.1234 31.9932 19.1581C32.5273 19.1929 32.9063 18.7932 33.3973 18.0372C33.4156 18.0096 33.444 17.9904 33.4763 17.9838C33.5086 17.9773 33.5422 17.984 33.5696 18.0025C33.597 18.0209 33.616 18.0496 33.6225 18.0822C33.6289 18.1147 33.6223 18.1486 33.604 18.1762C33.0298 19.0278 32.4871 19.4362 31.976 19.4014C31.7785 19.375 31.5893 19.3043 31.4224 19.1946C31.2554 19.0848 31.115 18.9388 31.0113 18.7671C30.8427 19.0045 30.6238 19.201 30.3705 19.3423C30.1172 19.4836 29.8358 19.5661 29.5469 19.5839Z" fill="black"/>
<path d="M31.2353 31.2795C33.0192 31.2795 34.4655 29.8207 34.4655 28.0211C34.4655 26.2215 33.0192 24.7626 31.2353 24.7626C29.4513 24.7626 28.0051 26.2215 28.0051 28.0211C28.0051 29.8207 29.4513 31.2795 31.2353 31.2795Z" fill="#FDC305"/>
<path d="M35.5163 25.3709L32.8201 26.5092L33.8107 21.6172L27.3503 30.0978L30.0465 28.9595L29.0559 33.8602L35.5163 25.3709ZM29.1506 28.6988L32.734 23.998L32.0363 27.4737L33.7591 26.7611L30.1498 31.4707L30.8476 27.995L29.1506 28.6988Z" fill="#111111"/>
<path d="M27.9447 27.4215C28.4776 27.4215 28.9095 26.9858 28.9095 26.4483C28.9095 25.9109 28.4776 25.4751 27.9447 25.4751C27.4119 25.4751 26.98 25.9109 26.98 26.4483C26.98 26.9858 27.4119 27.4215 27.9447 27.4215Z" fill="#111111"/>
<path d="M33.5612 30.9493C33.9371 30.9493 34.2417 30.642 34.2417 30.2629C34.2417 29.8838 33.9371 29.5764 33.5612 29.5764C33.1854 29.5764 32.8807 29.8838 32.8807 30.2629C32.8807 30.642 33.1854 30.9493 33.5612 30.9493Z" fill="#111111"/>
<path d="M34.3882 29.0638C34.5547 29.0638 34.6897 28.9276 34.6897 28.7597C34.6897 28.5917 34.5547 28.4555 34.3882 28.4555C34.2217 28.4555 34.0867 28.5917 34.0867 28.7597C34.0867 28.9276 34.2217 29.0638 34.3882 29.0638Z" fill="#111111"/>
<path d="M39.5224 16.506C37.9674 17.9199 36.5029 19.432 35.1377 21.033C33.7778 22.6225 32.2433 24.0509 30.5635 25.2907C30.374 24.8302 29.1594 23.97 29.1594 23.97C29.1594 23.97 26.4545 22.1018 24.6799 20.6333C23.7207 19.8274 22.8169 18.9565 21.9751 18.0266L20.2522 17.931C22.7392 21.5954 26.3826 24.3027 30.5893 25.6122C31.3302 25.4906 33.4148 23.9873 34.974 22.7622C36.8187 21.1798 38.5461 19.4634 40.1426 17.6269C40.5717 17.1125 40.9044 16.5236 41.1246 15.889C40.1426 16.2192 39.5224 16.506 39.5224 16.506Z" fill="#F06351"/>
<path d="M22.3368 22.3297C22.3368 22.3297 19.0548 21.0784 17.8488 20.7396C17.2825 20.4897 16.6572 20.4084 16.0467 20.5054C15.4361 20.6024 14.8658 20.8736 14.4031 21.287C13.931 21.7039 13.5536 22.2185 13.2964 22.7958C13.0393 23.373 12.9084 23.9994 12.9128 24.6323C13.0949 25.0362 13.2335 25.4585 13.3263 25.8922C13.3694 26.3093 12.2926 26.2659 11.6034 26.2659C10.9143 26.2659 10.8109 25.0146 11.3536 23.5462C11.777 22.417 12.3018 21.3292 12.9214 20.2964C8.22664 22.7641 0 28.4642 0 28.4642C2.35316 28.3211 4.71429 28.3909 7.0551 28.6728C11.5776 29.1333 11.3622 32.7306 11.3622 32.7306C12.9529 32.2883 14.574 31.9659 16.2121 31.7661C18.0383 31.6445 18.1675 33.6082 18.1675 33.6082L18.6241 36.9622C19.3173 36.2057 20.0819 35.5189 20.9069 34.9116C21.9703 34.0529 23.3243 33.6476 24.6799 33.782V33.782L22.3368 22.3297Z" fill="#F06351"/>
</svg>
