<svg width="118" height="22" viewBox="0 0 118 22" fill="none" xmlns="http://www.w3.org/2000/svg">
<path d="M1.42068 19.551C0.390506 18.0368 -0.10207 16.2255 0.0206814 14.4029V6.9634C-0.10927 5.12733 0.37586 3.3001 1.40068 1.76569C2.32735 0.581986 3.91068 -0.00655776 6.15068 5.51073e-05C8.39068 0.00666797 9.90735 0.525778 10.7007 1.55738C11.668 2.83578 12.14 4.4164 12.0307 6.01115V7.75695H7.89068V5.86236C7.8851 5.36386 7.84164 4.86649 7.76068 4.37447C7.71062 4.01828 7.54575 3.68771 7.29068 3.43213C7.13322 3.29819 6.95041 3.19674 6.75295 3.13372C6.55549 3.0707 6.34733 3.04738 6.14068 3.06512C5.84388 3.02118 5.54065 3.06903 5.27225 3.20215C5.00385 3.33526 4.78332 3.54718 4.64068 3.80906C4.37774 4.50567 4.26202 5.24847 4.30068 5.99131V15.4345C4.25506 16.1822 4.38871 16.9301 4.69068 17.6167C4.83496 17.8644 5.04906 18.0649 5.30666 18.1936C5.56426 18.3222 5.85414 18.3734 6.14068 18.3408C6.42223 18.3803 6.70918 18.3306 6.96058 18.1988C7.21197 18.067 7.41499 17.8598 7.54068 17.6068C7.78257 16.9089 7.88779 16.1716 7.85067 15.4345V13.4506H11.9907V15.1667C12.1126 16.7849 11.6791 18.3965 10.7607 19.7395C9.88068 20.8306 8.36068 21.3662 6.20068 21.3662C4.04068 21.3662 2.35068 20.7711 1.42068 19.551Z" fill="#111111"/>
<path d="M17.6714 0.287712H22.4114L26.4114 21.1182H22.4714L21.7614 16.5157H18.4414L17.6414 21.0885H13.6414L17.6714 0.287712ZM21.3214 13.897L20.0614 5.5251L18.8114 13.897H21.3214Z" fill="#111111"/>
<path d="M29.4819 3.42221H26.2419V0.287712H36.9619V3.42221H33.7619V21.0885H29.4719L29.4819 3.42221Z" fill="#111111"/>
<path d="M45.3729 0.287712H53.5029V2.45012H48.3029V9.32419H52.5229V11.3775H48.3029V19.0054H53.5529V21.0885H45.3729V0.287712Z" fill="#444444"/>
<path d="M55.9135 0.287712H57.9135L63.9135 14.1053V0.287712H66.3535V21.1182H64.4835L58.4835 6.9138V21.0885H56.0035L55.9135 0.287712Z" fill="#444444"/>
<path d="M69.5841 0.287712H77.7041V2.45012H72.5041V9.32419H76.7641V11.3775H72.5441V19.0054H77.7641V21.0885H69.5841V0.287712Z" fill="#444444"/>
<path d="M80.1146 0.287709H84.3346C85.9977 0.154967 87.6538 0.615791 89.0046 1.58714C90.0046 2.45012 90.4946 3.85866 90.4946 5.81276C90.4946 8.45791 89.6313 10.0748 87.9046 10.6633L90.9046 21.0885H88.0646L85.3146 11.3279H83.0446V21.0885H80.1146V0.287709ZM84.1146 9.21508C85.078 9.30754 86.0413 9.03857 86.8146 8.46121C87.1289 8.0923 87.3637 7.66351 87.5048 7.20123C87.6458 6.73895 87.69 6.25294 87.6346 5.77308C87.6547 5.10012 87.5566 4.42882 87.3446 3.78922C87.2586 3.55339 87.1258 3.33706 86.9541 3.15305C86.7823 2.96904 86.5751 2.82108 86.3446 2.71794C85.6954 2.45375 84.9954 2.33519 84.2946 2.37076H83.0046V9.25476L84.1146 9.21508Z" fill="#444444"/>
<path d="M94.4353 19.551C93.4794 17.9506 93.0365 16.0999 93.1653 14.2442V7.30066C93.1308 5.96072 93.2994 4.62324 93.6653 3.33294C93.9541 2.36289 94.5679 1.51959 95.4053 0.942389C96.4163 0.33805 97.5865 0.0478458 98.7653 0.109167C99.5277 0.0372408 100.297 0.131352 101.019 0.384924C101.741 0.638495 102.398 1.04541 102.945 1.57722C103.905 2.91042 104.358 4.53714 104.225 6.16986V6.94357H101.475V6.29881C101.494 5.52765 101.434 4.7566 101.295 3.99753C101.204 3.51106 100.933 3.07591 100.535 2.77746C100.016 2.47357 99.4168 2.33185 98.8153 2.37077C98.1621 2.31534 97.5128 2.5146 97.0053 2.92625C96.5906 3.31659 96.3195 3.83339 96.2353 4.3943C96.1086 5.21139 96.0517 6.03763 96.0653 6.86421V14.5913C95.9859 15.7655 96.1881 16.9417 96.6553 18.0234C96.9266 18.3561 97.271 18.6228 97.6622 18.8032C98.0534 18.9836 98.481 19.0729 98.9123 19.0643C99.3436 19.0557 99.7672 18.9494 100.151 18.7535C100.534 18.5576 100.868 18.2774 101.125 17.9341C101.607 16.7901 101.816 15.551 101.735 14.3136V12.8456H99.0753V10.7923H104.375V21.0885H102.565L102.275 18.6979C102.046 19.4921 101.553 20.1861 100.876 20.6669C100.198 21.1478 99.3771 21.3872 98.5453 21.3464C97.7632 21.4148 96.9764 21.2861 96.2579 20.9722C95.5393 20.6583 94.9124 20.1695 94.4353 19.551Z" fill="#444444"/>
<path d="M110.456 13.7482L105.926 0.287712H108.646L111.856 10.326L115.016 0.287712H117.766L113.266 13.7482V21.0885H110.466L110.456 13.7482Z" fill="#444444"/>
</svg>
