<svg width="118" height="22" fill="none" xmlns="http://www.w3.org/2000/svg"><path d="M1.42 19.551a8.174 8.174 0 0 1-1.4-5.148v-7.44A8.3 8.3 0 0 1 1.4 1.766C2.328.582 3.91-.007 6.15 0c2.24.007 3.757.526 4.55 1.557a6.628 6.628 0 0 1 1.33 4.454v1.746H7.89V5.862a9.842 9.842 0 0 0-.13-1.488 1.661 1.661 0 0 0-.47-.942 1.564 1.564 0 0 0-1.15-.367 1.47 1.47 0 0 0-1.5.744 5.386 5.386 0 0 0-.34 2.182v9.444a4.708 4.708 0 0 0 .39 2.182 1.49 1.49 0 0 0 1.45.724c.282.04.57-.01.82-.142.252-.132.455-.34.58-.592a5.75 5.75 0 0 0 .31-2.172V13.45h4.14v1.716a7.148 7.148 0 0 1-1.23 4.572c-.88 1.092-2.4 1.627-4.56 1.627-2.16 0-3.85-.595-4.78-1.815ZM17.671.288h4.74l4 20.83h-3.94l-.71-4.602h-3.32l-.8 4.573h-4L17.671.288Zm3.65 13.609-1.26-8.372-1.25 8.372h2.51ZM29.482 3.422h-3.24V.288h10.72v3.134h-3.2v17.666h-4.29l.01-17.666Z" fill="#111"/><path d="M45.373.288h8.13V2.45h-5.2v6.874h4.22v2.053h-4.22v7.628h5.25v2.084h-8.18V.288ZM55.913.288h2l6 13.817V.288h2.44v20.83h-1.87l-6-14.204v14.175h-2.48L55.913.288ZM69.584.288h8.12V2.45h-5.2v6.874h4.26v2.053h-4.22v7.628h5.22v2.084h-8.18V.288ZM80.115.288h4.22a7.041 7.041 0 0 1 4.67 1.3c1 .862 1.49 2.27 1.49 4.225 0 2.645-.864 4.262-2.59 4.85l3 10.425h-2.84l-2.75-9.76h-2.27v9.76h-2.93V.288Zm4 8.927a3.893 3.893 0 0 0 2.7-.754 3.533 3.533 0 0 0 .82-2.688 5.758 5.758 0 0 0-.29-1.984 1.873 1.873 0 0 0-1-1.071 4.795 4.795 0 0 0-2.05-.347h-1.29v6.884l1.11-.04ZM94.435 19.551a9.116 9.116 0 0 1-1.27-5.307V7.301c-.034-1.34.134-2.678.5-3.968a4.445 4.445 0 0 1 1.74-2.39 5.948 5.948 0 0 1 3.36-.834 5.3 5.3 0 0 1 2.254.276c.722.253 1.379.66 1.926 1.192a6.898 6.898 0 0 1 1.28 4.593v.774h-2.75v-.645a11.238 11.238 0 0 0-.18-2.301 1.98 1.98 0 0 0-.76-1.22 3.018 3.018 0 0 0-1.72-.407 2.534 2.534 0 0 0-1.81.555c-.414.39-.685.907-.77 1.468a14.556 14.556 0 0 0-.17 2.47v7.727a7.396 7.396 0 0 0 .59 3.432 2.85 2.85 0 0 0 3.496.73c.383-.195.717-.476.974-.819a7.98 7.98 0 0 0 .61-3.62v-1.468h-2.66v-2.054h5.3v10.296h-1.81l-.29-2.39a3.66 3.66 0 0 1-1.399 1.969c-.678.48-1.499.72-2.33.68a4.693 4.693 0 0 1-2.288-.375 4.654 4.654 0 0 1-1.823-1.421ZM110.456 13.748l-4.53-13.46h2.72l3.21 10.038 3.16-10.038h2.75l-4.5 13.46v7.34h-2.8l-.01-7.34Z" fill="#444"/></svg>